<svg width="1231" height="266" viewBox="0 0 1231 266" fill="none" xmlns="http://www.w3.org/2000/svg">
<path d="M303.104 207V58.072H330.352V95.72L328.688 114.232H330.352C333.403 109.379 337.771 105.427 343.456 102.376C349.28 99.1867 355.659 97.592 362.592 97.592C371.328 97.592 378.677 99.3947 384.64 103C390.603 106.467 395.04 111.459 397.952 117.976C401.003 124.493 402.528 132.189 402.528 141.064V207H375.28V144.392C375.28 139.677 374.379 135.795 372.576 132.744C370.912 129.555 368.555 127.128 365.504 125.464C362.592 123.8 359.125 122.968 355.104 122.968C350.251 122.968 345.952 124.355 342.208 127.128C338.464 129.763 335.552 133.368 333.472 137.944C331.392 142.52 330.352 147.581 330.352 153.128V207H303.104ZM472.335 210.328C461.241 210.328 451.396 207.901 442.799 203.048C434.34 198.056 427.684 191.331 422.831 182.872C418.116 174.275 415.759 164.637 415.759 153.96C415.759 143.283 418.116 133.715 422.831 125.256C427.684 116.659 434.34 109.933 442.799 105.08C451.396 100.088 461.241 97.592 472.335 97.592C483.428 97.592 493.204 100.088 501.663 105.08C510.121 110.072 516.708 116.797 521.423 125.256C526.276 133.715 528.703 143.283 528.703 153.96C528.703 164.637 526.276 174.275 521.423 182.872C516.708 191.331 510.121 198.056 501.663 203.048C493.204 207.901 483.428 210.328 472.335 210.328ZM472.335 184.952C477.604 184.952 482.388 183.773 486.687 181.416C491.124 178.92 494.66 175.384 497.295 170.808C500.068 166.093 501.455 160.477 501.455 153.96C501.455 147.443 500.068 141.896 497.295 137.32C494.66 132.744 491.124 129.208 486.687 126.712C482.388 124.216 477.604 122.968 472.335 122.968C467.204 122.968 462.351 124.216 457.775 126.712C453.337 129.208 449.732 132.744 446.959 137.32C444.324 141.896 443.007 147.443 443.007 153.96C443.007 160.477 444.324 166.093 446.959 170.808C449.732 175.384 453.337 178.92 457.775 181.416C462.351 183.773 467.204 184.952 472.335 184.952ZM542.905 207V100.92H568.489V115.064H570.153C571.956 111.736 574.313 108.824 577.225 106.328C580.276 103.693 583.812 101.613 587.833 100.088C591.855 98.5627 596.153 97.8 600.729 97.8C603.503 97.8 605.999 98.008 608.217 98.424C610.436 98.84 612.377 99.3947 614.041 100.088V127.336C611.129 126.227 608.217 125.325 605.305 124.632C602.532 123.8 599.551 123.384 596.361 123.384C590.953 123.384 586.239 124.771 582.217 127.544C578.335 130.179 575.353 133.853 573.273 138.568C571.193 143.144 570.153 148.344 570.153 154.168V207H542.905ZM660.502 210.328C651.35 210.328 643.515 209.011 636.998 206.376C630.619 203.741 625.419 200.275 621.398 195.976C617.376 191.677 614.395 186.963 612.454 181.832L636.79 171.224C639.147 176.216 642.336 180.029 646.358 182.664C650.379 185.16 655.094 186.408 660.502 186.408C664.939 186.408 668.96 185.715 672.566 184.328C676.171 182.803 677.974 180.099 677.974 176.216C677.974 173.443 677.003 171.293 675.062 169.768C673.259 168.104 670.971 166.856 668.198 166.024C665.424 165.053 662.582 164.291 659.67 163.736L647.19 161.032C642.059 159.923 637.206 157.981 632.63 155.208C628.054 152.296 624.31 148.691 621.398 144.392C618.624 139.955 617.238 134.893 617.238 129.208C617.238 122.829 619.04 117.283 622.646 112.568C626.39 107.853 631.382 104.179 637.622 101.544C644 98.9093 651.003 97.592 658.63 97.592C665.702 97.592 672.08 98.424 677.766 100.088C683.451 101.752 688.374 104.317 692.534 107.784C696.694 111.112 700.022 115.411 702.518 120.68L679.222 130.872C677.003 126.712 674.091 123.8 670.486 122.136C667.019 120.472 663.275 119.64 659.254 119.64C654.539 119.64 650.795 120.541 648.022 122.344C645.248 124.147 643.862 126.296 643.862 128.792C643.862 131.427 645.248 133.715 648.022 135.656C650.795 137.597 654.123 139.053 658.006 140.024L673.606 143.768C684.144 146.264 692.048 150.285 697.318 155.832C702.726 161.379 705.43 168.035 705.43 175.8C705.43 182.733 703.419 188.835 699.398 194.104C695.376 199.235 689.968 203.256 683.174 206.168C676.379 208.941 668.822 210.328 660.502 210.328ZM768.231 210.328C757.554 210.328 747.986 207.901 739.527 203.048C731.207 198.195 724.62 191.539 719.767 183.08C715.052 174.621 712.695 164.984 712.695 154.168C712.695 144.045 715.052 134.685 719.767 126.088C724.482 117.491 730.93 110.627 739.111 105.496C747.292 100.227 756.652 97.592 767.191 97.592C778.562 97.592 788.13 100.019 795.895 104.872C803.66 109.725 809.554 116.243 813.575 124.424C817.596 132.467 819.607 141.411 819.607 151.256C819.607 153.475 819.538 155.416 819.399 157.08C819.26 158.605 819.122 159.715 818.983 160.408H727.879V141.064H793.399C793.26 138.707 792.567 136.28 791.319 133.784C790.071 131.288 788.338 129 786.119 126.92C783.9 124.84 781.196 123.176 778.007 121.928C774.956 120.541 771.42 119.848 767.399 119.848C762.13 119.848 757.276 121.235 752.839 124.008C748.54 126.781 745.143 130.664 742.647 135.656C740.151 140.509 738.903 146.333 738.903 153.128C738.903 160.2 740.22 166.232 742.855 171.224C745.49 176.077 749.026 179.821 753.463 182.456C758.039 184.952 763.1 186.2 768.647 186.2C775.164 186.2 780.642 184.813 785.079 182.04C789.516 179.128 792.983 175.523 795.479 171.224L817.527 182.04C812.535 190.776 806.018 197.709 797.975 202.84C789.932 207.832 780.018 210.328 768.231 210.328ZM833.748 207V100.92H859.332V114.232H860.996C864.185 109.101 868.692 105.08 874.516 102.168C880.34 99.1173 886.649 97.592 893.444 97.592C906.478 97.592 916.254 101.544 922.772 109.448C929.289 117.352 932.548 127.891 932.548 141.064V207H905.3V144.392C905.3 137.459 903.497 132.189 899.892 128.584C896.425 124.84 891.641 122.968 885.54 122.968C880.548 122.968 876.18 124.355 872.436 127.128C868.83 129.763 865.988 133.368 863.908 137.944C861.966 142.381 860.996 147.373 860.996 152.92V207H833.748ZM1002.37 210.328C991.276 210.328 981.43 207.901 972.833 203.048C964.374 198.056 957.718 191.331 952.865 182.872C948.15 174.275 945.793 164.637 945.793 153.96C945.793 143.283 948.15 133.715 952.865 125.256C957.718 116.659 964.374 109.933 972.833 105.08C981.43 100.088 991.276 97.592 1002.37 97.592C1013.46 97.592 1023.24 100.088 1031.7 105.08C1040.16 110.072 1046.74 116.797 1051.46 125.256C1056.31 133.715 1058.74 143.283 1058.74 153.96C1058.74 164.637 1056.31 174.275 1051.46 182.872C1046.74 191.331 1040.16 198.056 1031.7 203.048C1023.24 207.901 1013.46 210.328 1002.37 210.328ZM1002.37 184.952C1007.64 184.952 1012.42 183.773 1016.72 181.416C1021.16 178.92 1024.69 175.384 1027.33 170.808C1030.1 166.093 1031.49 160.477 1031.49 153.96C1031.49 147.443 1030.1 141.896 1027.33 137.32C1024.69 132.744 1021.16 129.208 1016.72 126.712C1012.42 124.216 1007.64 122.968 1002.37 122.968C997.238 122.968 992.385 124.216 987.809 126.712C983.372 129.208 979.766 132.744 976.993 137.32C974.358 141.896 973.041 147.443 973.041 153.96C973.041 160.477 974.358 166.093 976.993 170.808C979.766 175.384 983.372 178.92 987.809 181.416C992.385 183.773 997.238 184.952 1002.37 184.952ZM1092.75 207L1059.05 100.92H1089.63L1107.93 169.768H1109.39L1130.6 100.92H1158.48L1179.69 169.768H1181.15L1199.45 100.92H1229.61L1195.71 207H1166.38L1144.75 138.36H1143.29L1121.87 207H1092.75Z" fill="#323232"/>
<path d="M128 74.6667C143.656 74.6667 156.077 79.5059 165.135 88.1563C173.996 96.6188 178.683 107.809 180.865 118.927C185.16 140.82 180.419 165.708 173.896 180.26C170.324 188.266 173.089 197.108 182.073 202.365L198.906 210.396L208.417 196.135L197.896 190.875C192.927 188.391 190.698 182.508 192.771 177.354C194.62 172.76 197.285 168.88 199.594 165.677C202.073 162.238 204.172 159.524 206.219 156.156C209.94 150.035 213.333 141.915 213.333 128C213.333 112.848 210.747 91.3498 199.125 73.9167C188.012 57.2469 167.559 42.6667 128 42.6667C88.4406 42.6667 67.9882 57.2469 56.875 73.9167C45.2529 91.3498 42.6667 112.848 42.6667 128C42.6667 141.921 46.0491 150.02 49.7604 156.125C51.8041 159.486 53.9019 162.189 56.3854 165.635C58.7007 168.848 61.3685 172.734 63.2292 177.344C65.3076 182.499 63.0763 188.389 58.1042 190.875L47.5729 196.135L57.0833 210.396L73.9271 202.354C82.9167 197.098 85.6756 188.257 82.0938 180.26V180.25C75.5778 165.699 70.8392 140.818 75.1354 118.927C77.3179 107.809 82.0038 96.6188 90.8646 88.1563C99.9229 79.506 112.344 74.6667 128 74.6667ZM234.667 128C234.667 146.084 230.06 158.007 224.448 167.24C222.183 170.965 219.696 174.3 217.76 176.948L228.771 182.458C231.507 183.827 233.527 186.304 234.313 189.26C235.098 192.217 234.572 195.371 232.875 197.917L211.542 229.917C208.6 234.329 202.86 235.907 198.073 233.625L172.417 221.396C172.178 221.282 171.938 221.152 171.708 221.021C154.235 211.031 145.792 190.857 154.427 171.542V171.531C159.413 160.409 163.255 140.01 159.927 123.042C158.297 114.731 155.122 108.088 150.406 103.583C145.886 99.2664 139.01 96 128 96C116.99 96 110.114 99.2663 105.594 103.583C100.877 108.088 97.704 114.731 96.0729 123.042C92.7435 140.009 96.5812 160.407 101.563 171.531L102.323 173.344C109.678 192.089 101.237 211.351 84.2917 221.031C84.0628 221.162 83.8213 221.282 83.5833 221.396L57.9271 233.625C53.14 235.907 47.4 234.329 44.4583 229.917L23.125 197.917C21.4279 195.371 20.9022 192.217 21.6875 189.26C22.473 186.304 24.4929 183.827 27.2292 182.458L38.2292 176.948C36.2906 174.295 33.8017 170.943 31.5313 167.208C25.9226 157.983 21.3333 146.079 21.3333 128C21.3333 111.152 24.0804 84.6503 39.125 62.0834C54.6785 38.7532 82.2261 21.3334 128 21.3334C173.774 21.3334 201.322 38.7532 216.875 62.0834C231.92 84.6503 234.667 111.152 234.667 128Z" fill="#323232"/>
</svg>
